<?xml version="1.0" encoding="utf-8"?>
<!-- Generator: Adobe Illustrator 22.1.0, SVG Export Plug-In . SVG Version: 6.00 Build 0)  -->
<svg version="1.1" id="Layer_1" xmlns="http://www.w3.org/2000/svg" xmlns:xlink="http://www.w3.org/1999/xlink" x="0px" y="0px"
	 viewBox="0 0 48 48" style="enable-background:new 0 0 48 48;" xml:space="preserve">
<style type="text/css">
	.st0{fill:url(#SVGID_1_);}
	.st1{fill:#D8346C;}
	.st2{fill:#FFFFFF;}
</style>
<radialGradient id="SVGID_1_" cx="24" cy="24" r="24" gradientUnits="userSpaceOnUse">
	<stop  offset="0" style="stop-color:#FF4081"/>
	<stop  offset="1" style="stop-color:#D8346C"/>
</radialGradient>
<path class="st0" d="M36,48H12C5.4,48,0,42.6,0,36V12C0,5.4,5.4,0,12,0h24c6.6,0,12,5.4,12,12v24C48,42.6,42.6,48,36,48z"/>
<rect x="19.8" y="22" class="st1" width="12.8" height="22"/>
<path class="st1" d="M26.2,3.4C21,10.7,15.8,18,10.6,25.2c10,0,20.1,0,30.1,0C35.9,18,31.1,10.7,26.2,3.4z"/>
<rect x="17.8" y="20.3" class="st2" width="12.8" height="23.7"/>
<path class="st2" d="M24.4,3.2C19.5,10.5,14.5,17.7,9.6,25c9.5,0,19.1,0,28.6,0C33.6,17.7,29,10.5,24.4,3.2z"/>
</svg>
